<?xml version="1.0" encoding="UTF-8" standalone="no"?>
<!DOCTYPE svg PUBLIC "-//W3C//DTD SVG 1.1//EN" "http://www.w3.org/Graphics/SVG/1.1/DTD/svg11.dtd">
<svg version="1.1" xmlns="http://www.w3.org/2000/svg" xmlns:xlink="http://www.w3.org/1999/xlink" preserveAspectRatio="xMidYMid meet" viewBox="0 0 640 640" width="640" height="640"><defs><path d="M0 0L643.71 0L643.71 640L0 640L0 0Z" id="a1bhA6rmsT"></path><path d="M541.45 366.16C541.45 482.67 449.66 577.12 336.45 577.12C223.23 577.12 131.44 482.67 131.44 366.16C131.44 249.66 223.23 155.22 336.45 155.22C449.66 155.22 541.45 249.66 541.45 366.16" id="cUp98tzn0"></path><path d="M176.75 354.94C189.46 406.03 180.73 452.46 157.22 458.65C133.71 464.85 104.35 428.46 91.63 377.39C78.91 326.31 87.66 279.88 111.16 273.68C134.66 267.49 164.03 303.87 176.75 354.94" id="g1M84gTzd"></path><path d="M496.14 354.94C483.41 406.03 492.16 452.46 515.66 458.65C539.17 464.85 568.53 428.46 581.25 377.39C593.97 326.31 585.23 279.88 561.72 273.68C538.22 267.49 508.86 303.87 496.14 354.94" id="b7T5rQgJM"></path><path d="M514.13 374.05C514.13 475.02 434.58 556.89 336.44 556.89C238.31 556.89 158.76 475.02 158.76 374.05C158.76 273.07 238.31 191.2 336.44 191.2C434.58 191.2 514.13 273.07 514.13 374.05" id="b1Whva7EV8"></path><path d="M275.03 415.31C275.03 442.73 253.43 464.96 226.79 464.96C200.15 464.96 178.55 442.73 178.55 415.31C178.55 387.9 200.15 365.68 226.79 365.68C253.43 365.68 275.03 387.9 275.03 415.31" id="a3usP8GgKp"></path><path d="M494.34 415.31C494.34 442.73 472.73 464.96 446.09 464.96C419.45 464.96 397.85 442.73 397.85 415.31C397.85 387.9 419.45 365.68 446.09 365.68C472.73 365.68 494.34 387.9 494.34 415.31" id="aBjBrVqEp"></path><path d="M332.08 502.52C307.04 502.52 284.01 489.53 270.49 467.8C267.45 462.92 268.84 456.43 273.58 453.31C278.31 450.18 284.63 451.6 287.66 456.49C297.42 472.16 314.02 481.53 332.08 481.53C350.14 481.53 366.75 472.16 376.5 456.49C379.53 451.6 385.83 450.18 390.58 453.31C395.32 456.42 396.71 462.92 393.67 467.8C380.16 489.53 357.13 502.52 332.08 502.52" id="a3fzRaz5Hi"></path><path d="M331.33 428.05C325.7 428.05 321.13 423.35 321.13 417.56C321.13 413.04 321.13 376.9 321.13 372.38C321.13 330.92 353.91 297.19 394.21 297.19C404.05 297.19 413.62 299.18 422.64 303.1C427.83 305.35 430.26 311.51 428.07 316.85C425.87 322.19 419.88 324.68 414.71 322.43C408.21 319.61 401.32 318.17 394.21 318.17C365.15 318.17 341.52 342.49 341.52 372.38C341.52 376.9 341.52 413.04 341.52 417.56C341.52 423.35 336.96 428.05 331.33 428.05" id="b1RZbQQQ92"></path><path d="M268.88 389.17C252.63 389.17 241.84 382.85 240.66 382.13C235.82 379.16 234.24 372.72 237.12 367.75C239.98 362.79 246.18 361.15 251.01 364.05C251.3 364.21 258.38 368.19 268.88 368.19C279.51 368.19 286.6 364.14 286.66 364.1C291.5 361.14 297.76 362.77 300.64 367.74C303.52 372.72 301.94 379.16 297.1 382.13C295.92 382.85 285.13 389.17 268.88 389.17" id="cUlxcLBHo"></path><path d="M395.67 389.17C379.42 389.17 368.63 382.85 367.45 382.13C362.61 379.16 361.03 372.72 363.91 367.74C366.77 362.78 372.98 361.15 377.8 364.05C378.09 364.21 385.17 368.19 395.67 368.19C406.3 368.19 413.4 364.14 413.46 364.1C418.31 361.13 424.56 362.77 427.44 367.75C430.32 372.72 428.73 379.16 423.89 382.13C422.71 382.85 411.92 389.17 395.67 389.17" id="b5cgBgcxEQ"></path><path d="M363.78 161.47C330.98 161.47 312.76 161.47 309.11 161.47C309.11 161.47 318.7 160.73 318.7 158.14C318.7 156 331.63 62.19 336.99 62.19C342.36 62.19 353.85 156.41 353.85 158.14C353.85 160.8 363.78 161.47 363.78 161.47" id="k4xuONMqch"></path></defs><g><g><g><use xlink:href="#a1bhA6rmsT" opacity="1" fill="#263238" fill-opacity="1"></use></g><g><use xlink:href="#cUp98tzn0" opacity="1" fill="#ffffff" fill-opacity="1"></use><g><use xlink:href="#cUp98tzn0" opacity="1" fill-opacity="0" stroke="#000000" stroke-width="1" stroke-opacity="0"></use></g></g><g><use xlink:href="#g1M84gTzd" opacity="1" fill="#ffffff" fill-opacity="1"></use><g><use xlink:href="#g1M84gTzd" opacity="1" fill-opacity="0" stroke="#000000" stroke-width="1" stroke-opacity="0"></use></g></g><g><use xlink:href="#b7T5rQgJM" opacity="1" fill="#ffffff" fill-opacity="1"></use><g><use xlink:href="#b7T5rQgJM" opacity="1" fill-opacity="0" stroke="#000000" stroke-width="1" stroke-opacity="0"></use></g></g><g><use xlink:href="#b1Whva7EV8" opacity="1" fill="#263238" fill-opacity="1"></use><g><use xlink:href="#b1Whva7EV8" opacity="1" fill-opacity="0" stroke="#000000" stroke-width="1" stroke-opacity="0"></use></g></g><g><use xlink:href="#a3usP8GgKp" opacity="1" fill="#fbccb5" fill-opacity="1"></use><g><use xlink:href="#a3usP8GgKp" opacity="1" fill-opacity="0" stroke="#000000" stroke-width="1" stroke-opacity="0"></use></g></g><g><use xlink:href="#aBjBrVqEp" opacity="1" fill="#fbccb5" fill-opacity="1"></use><g><use xlink:href="#aBjBrVqEp" opacity="1" fill-opacity="0" stroke="#000000" stroke-width="1" stroke-opacity="0"></use></g></g><g><use xlink:href="#a3fzRaz5Hi" opacity="1" fill="#ffffff" fill-opacity="1"></use><g><use xlink:href="#a3fzRaz5Hi" opacity="1" fill-opacity="0" stroke="#000000" stroke-width="1" stroke-opacity="0"></use></g></g><g><use xlink:href="#b1RZbQQQ92" opacity="1" fill="#ffffff" fill-opacity="1"></use><g><use xlink:href="#b1RZbQQQ92" opacity="1" fill-opacity="0" stroke="#000000" stroke-width="1" stroke-opacity="0"></use></g></g><g><use xlink:href="#cUlxcLBHo" opacity="1" fill="#ffffff" fill-opacity="1"></use><g><use xlink:href="#cUlxcLBHo" opacity="1" fill-opacity="0" stroke="#000000" stroke-width="1" stroke-opacity="0"></use></g></g><g><use xlink:href="#b5cgBgcxEQ" opacity="1" fill="#ffffff" fill-opacity="1"></use><g><use xlink:href="#b5cgBgcxEQ" opacity="1" fill-opacity="0" stroke="#000000" stroke-width="1" stroke-opacity="0"></use></g></g><g><use xlink:href="#k4xuONMqch" opacity="1" fill="#ffffff" fill-opacity="1"></use><g><use xlink:href="#k4xuONMqch" opacity="1" fill-opacity="0" stroke="#000000" stroke-width="1" stroke-opacity="0"></use></g></g></g></g></svg>