<?xml version="1.0" encoding="UTF-8" standalone="no"?>
<!DOCTYPE svg PUBLIC "-//W3C//DTD SVG 1.1//EN" "http://www.w3.org/Graphics/SVG/1.1/DTD/svg11.dtd">
<svg version="1.1" xmlns="http://www.w3.org/2000/svg" xmlns:xlink="http://www.w3.org/1999/xlink" preserveAspectRatio="xMidYMid meet" viewBox="0 0 640 640" width="640" height="640"><defs><path d="M529.84 355.79C529.84 472.3 438.05 566.75 324.84 566.75C211.62 566.75 119.83 472.3 119.83 355.79C119.83 239.3 211.62 144.85 324.84 144.85C438.05 144.85 529.84 239.3 529.84 355.79" id="c3JnowGIqc"></path><path d="M165.14 344.58C177.86 395.66 169.12 442.09 145.61 448.29C122.11 454.48 92.74 418.1 80.02 367.03C67.31 315.94 76.05 269.52 99.55 263.32C123.06 257.12 152.43 293.51 165.14 344.58" id="b1xvnZbqx"></path><path d="M484.54 344.58C471.81 395.66 480.55 442.09 504.06 448.29C527.56 454.48 556.93 418.1 569.65 367.03C582.37 315.94 573.62 269.52 550.12 263.32C526.61 257.12 497.25 293.51 484.54 344.58" id="bdcI1Trvu"></path><path d="M502.53 363.68C502.53 464.66 422.97 546.52 324.84 546.52C226.7 546.52 147.15 464.66 147.15 363.68C147.15 262.7 226.7 180.83 324.84 180.83C422.97 180.83 502.53 262.7 502.53 363.68" id="a3saR1oms0"></path><path d="M263.42 404.94C263.42 432.36 241.82 454.59 215.18 454.59C188.54 454.59 166.94 432.36 166.94 404.94C166.94 377.53 188.54 355.31 215.18 355.31C241.82 355.31 263.42 377.53 263.42 404.94" id="b1KBBMazHR"></path><path d="M482.73 404.94C482.73 432.36 461.13 454.59 434.49 454.59C407.84 454.59 386.25 432.36 386.25 404.94C386.25 377.53 407.84 355.31 434.49 355.31C461.13 355.31 482.73 377.53 482.73 404.94" id="a3pykEs70B"></path><path d="M320.47 492.15C295.43 492.15 272.41 479.17 258.89 457.43C255.85 452.55 257.23 446.07 261.98 442.94C266.71 439.81 273.02 441.23 276.05 446.12C285.81 461.8 302.42 471.17 320.47 471.17C338.53 471.17 355.14 461.8 364.89 446.12C367.92 441.24 374.23 439.81 378.97 442.94C383.71 446.06 385.1 452.55 382.07 457.43C368.55 479.17 345.53 492.15 320.47 492.15" id="d1Z9DcvxR"></path><path d="M319.72 417.68C314.09 417.68 309.52 412.98 309.52 407.19C309.52 402.68 309.52 366.53 309.52 362.01C309.52 320.55 342.3 286.82 382.6 286.82C392.45 286.82 402.01 288.81 411.04 292.73C416.22 294.99 418.65 301.14 416.46 306.48C414.27 311.82 408.27 314.31 403.1 312.06C396.61 309.25 389.71 307.81 382.6 307.81C353.55 307.81 329.92 332.12 329.92 362.01C329.92 366.53 329.92 402.68 329.92 407.19C329.92 412.98 325.35 417.68 319.72 417.68" id="c4AXmEMVpD"></path><path d="M257.27 378.81C241.03 378.81 230.23 372.48 229.06 371.76C224.22 368.79 222.63 362.35 225.51 357.38C228.37 352.42 234.57 350.78 239.41 353.68C239.69 353.84 246.77 357.82 257.27 357.82C267.9 357.82 275 353.77 275.06 353.73C279.89 350.78 286.16 352.4 289.04 357.37C291.92 362.35 290.33 368.79 285.49 371.76C284.32 372.48 273.52 378.81 257.27 378.81" id="arll8a1vj"></path><path d="M384.07 378.81C367.81 378.81 357.02 372.48 355.84 371.76C351.01 368.79 349.42 362.35 352.3 357.37C355.16 352.42 361.38 350.78 366.2 353.68C366.48 353.84 373.56 357.82 384.07 357.82C394.7 357.82 401.79 353.77 401.86 353.73C406.7 350.76 412.96 352.4 415.83 357.38C418.71 362.35 417.12 368.79 412.29 371.76C411.11 372.48 400.31 378.81 384.07 378.81" id="apHeFhPBa"></path><path d="M352.17 151.1C319.37 151.1 301.15 151.1 297.5 151.1C297.5 151.1 307.09 150.36 307.09 147.78C307.09 145.63 320.02 51.82 325.38 51.82C330.75 51.82 342.25 146.04 342.25 147.78C342.25 150.44 352.17 151.1 352.17 151.1" id="g7g0Sz3I5r"></path></defs><g><g><g><use xlink:href="#c3JnowGIqc" opacity="1" fill="#ffffff" fill-opacity="1"></use><g><use xlink:href="#c3JnowGIqc" opacity="1" fill-opacity="0" stroke="#000000" stroke-width="1" stroke-opacity="0"></use></g></g><g><use xlink:href="#b1xvnZbqx" opacity="1" fill="#ffffff" fill-opacity="1"></use><g><use xlink:href="#b1xvnZbqx" opacity="1" fill-opacity="0" stroke="#000000" stroke-width="1" stroke-opacity="0"></use></g></g><g><use xlink:href="#bdcI1Trvu" opacity="1" fill="#ffffff" fill-opacity="1"></use><g><use xlink:href="#bdcI1Trvu" opacity="1" fill-opacity="0" stroke="#000000" stroke-width="1" stroke-opacity="0"></use></g></g><g><use xlink:href="#a3saR1oms0" opacity="1" fill="#263238" fill-opacity="1"></use><g><use xlink:href="#a3saR1oms0" opacity="1" fill-opacity="0" stroke="#000000" stroke-width="1" stroke-opacity="0"></use></g></g><g><use xlink:href="#b1KBBMazHR" opacity="1" fill="#fbccb5" fill-opacity="1"></use><g><use xlink:href="#b1KBBMazHR" opacity="1" fill-opacity="0" stroke="#000000" stroke-width="1" stroke-opacity="0"></use></g></g><g><use xlink:href="#a3pykEs70B" opacity="1" fill="#fbccb5" fill-opacity="1"></use><g><use xlink:href="#a3pykEs70B" opacity="1" fill-opacity="0" stroke="#000000" stroke-width="1" stroke-opacity="0"></use></g></g><g><use xlink:href="#d1Z9DcvxR" opacity="1" fill="#ffffff" fill-opacity="1"></use><g><use xlink:href="#d1Z9DcvxR" opacity="1" fill-opacity="0" stroke="#000000" stroke-width="1" stroke-opacity="0"></use></g></g><g><use xlink:href="#c4AXmEMVpD" opacity="1" fill="#ffffff" fill-opacity="1"></use><g><use xlink:href="#c4AXmEMVpD" opacity="1" fill-opacity="0" stroke="#000000" stroke-width="1" stroke-opacity="0"></use></g></g><g><use xlink:href="#arll8a1vj" opacity="1" fill="#ffffff" fill-opacity="1"></use><g><use xlink:href="#arll8a1vj" opacity="1" fill-opacity="0" stroke="#000000" stroke-width="1" stroke-opacity="0"></use></g></g><g><use xlink:href="#apHeFhPBa" opacity="1" fill="#ffffff" fill-opacity="1"></use><g><use xlink:href="#apHeFhPBa" opacity="1" fill-opacity="0" stroke="#000000" stroke-width="1" stroke-opacity="0"></use></g></g><g><use xlink:href="#g7g0Sz3I5r" opacity="1" fill="#ffffff" fill-opacity="1"></use><g><use xlink:href="#g7g0Sz3I5r" opacity="1" fill-opacity="0" stroke="#000000" stroke-width="1" stroke-opacity="0"></use></g></g></g></g></svg>