<?xml version="1.0" encoding="UTF-8" standalone="no"?>
<!DOCTYPE svg PUBLIC "-//W3C//DTD SVG 1.1//EN" "http://www.w3.org/Graphics/SVG/1.1/DTD/svg11.dtd">
<svg version="1.1" xmlns="http://www.w3.org/2000/svg" xmlns:xlink="http://www.w3.org/1999/xlink" preserveAspectRatio="xMidYMid meet" viewBox="0 0 640 640" width="640" height="640"><defs><path d="M640 320C640 496.61 496.61 640 320 640C143.39 640 0 496.61 0 320C0 143.39 143.39 0 320 0C496.61 0 640 143.39 640 320Z" id="aLnsoNYMg"></path><path d="M465.53 339.58C465.53 417.84 404.11 481.28 328.35 481.28C252.58 481.28 191.16 417.84 191.16 339.58C191.16 261.33 252.58 197.89 328.35 197.89C404.11 197.89 465.53 261.33 465.53 339.58" id="a2NiJ9oPiW"></path><path d="M222 332.04C230.51 366.36 224.67 397.54 208.93 401.7C193.21 405.87 173.56 381.43 165.04 347.12C156.53 312.81 162.39 281.63 178.11 277.46C193.84 273.3 213.49 297.74 222 332.04" id="c4zUqQvvM"></path><path d="M435.21 332.05C426.69 366.36 432.55 397.54 448.27 401.71C464 405.87 483.66 381.43 492.16 347.13C500.68 312.82 494.83 281.63 479.1 277.46C463.37 273.3 443.72 297.74 435.21 332.05" id="b28Uaq7gfc"></path><path d="M447.25 339.58C447.25 407.41 394.01 462.4 328.34 462.4C262.68 462.4 209.44 407.41 209.44 339.58C209.44 271.75 262.68 216.77 328.34 216.77C394.01 216.77 447.25 271.75 447.25 339.58" id="c2i95e8Hv"></path><path d="M325.43 381.62C321.67 381.62 318.61 378.47 318.61 374.58C318.61 371.54 318.61 347.27 318.61 344.24C318.61 316.38 340.54 293.73 367.5 293.73C374.1 293.73 380.51 295.06 386.54 297.7C390.01 299.22 391.63 303.35 390.17 306.94C388.7 310.52 384.69 312.2 381.22 310.68C376.88 308.78 372.27 307.82 367.5 307.82C348.07 307.82 332.26 324.16 332.26 344.24C332.26 347.27 332.26 371.54 332.26 374.58C332.26 378.47 329.2 381.62 325.43 381.62" id="acwFKr5zW"></path><path d="M325.43 430.68C308.66 430.68 293.26 421.96 284.22 407.36C282.19 404.08 283.12 399.73 286.29 397.63C289.46 395.53 293.68 396.49 295.71 399.77C302.23 410.3 313.34 416.59 325.43 416.59C337.52 416.59 348.63 410.3 355.15 399.77C357.18 396.49 361.4 395.53 364.58 397.63C367.75 399.73 368.68 404.08 366.65 407.36C357.61 421.96 342.2 430.68 325.43 430.68" id="b49feUl6tm"></path><path d="M371.12 344.35C371.12 350.17 366.55 354.91 360.9 354.91C355.25 354.91 350.68 350.17 350.68 344.35C350.68 338.51 355.25 333.78 360.9 333.78C366.55 333.78 371.12 338.51 371.12 344.35" id="aj42d7S3J"></path><path d="M300.19 343.76C300.19 349.59 295.61 354.32 289.96 354.32C284.32 354.32 279.74 349.59 279.74 343.76C279.74 337.93 284.32 333.2 289.96 333.2C295.61 333.2 300.19 337.93 300.19 343.76" id="hUtFidhlZ"></path><path d="M345.06 206.57C321.51 206.57 308.42 206.57 305.81 206.57C305.81 206.57 312.69 205.7 312.69 202.66C312.69 200.14 321.97 89.88 325.82 89.88C329.68 89.88 337.93 200.62 337.93 202.66C337.93 205.79 345.06 206.57 345.06 206.57" id="c2SIMJdRa"></path></defs><g><g><g><use xlink:href="#aLnsoNYMg" opacity="1" fill="#263238" fill-opacity="1"></use></g><g><use xlink:href="#a2NiJ9oPiW" opacity="1" fill="#ffffff" fill-opacity="1"></use><g><use xlink:href="#a2NiJ9oPiW" opacity="1" fill-opacity="0" stroke="#000000" stroke-width="1" stroke-opacity="0"></use></g></g><g><use xlink:href="#c4zUqQvvM" opacity="1" fill="#ffffff" fill-opacity="1"></use><g><use xlink:href="#c4zUqQvvM" opacity="1" fill-opacity="0" stroke="#000000" stroke-width="1" stroke-opacity="0"></use></g></g><g><use xlink:href="#b28Uaq7gfc" opacity="1" fill="#ffffff" fill-opacity="1"></use><g><use xlink:href="#b28Uaq7gfc" opacity="1" fill-opacity="0" stroke="#000000" stroke-width="1" stroke-opacity="0"></use></g></g><g><use xlink:href="#c2i95e8Hv" opacity="1" fill="#263238" fill-opacity="1"></use><g><use xlink:href="#c2i95e8Hv" opacity="1" fill-opacity="0" stroke="#000000" stroke-width="1" stroke-opacity="0"></use></g></g><g><use xlink:href="#acwFKr5zW" opacity="1" fill="#ffffff" fill-opacity="1"></use><g><use xlink:href="#acwFKr5zW" opacity="1" fill-opacity="0" stroke="#000000" stroke-width="1" stroke-opacity="0"></use></g></g><g><use xlink:href="#b49feUl6tm" opacity="1" fill="#ffffff" fill-opacity="1"></use><g><use xlink:href="#b49feUl6tm" opacity="1" fill-opacity="0" stroke="#000000" stroke-width="1" stroke-opacity="0"></use></g></g><g><use xlink:href="#aj42d7S3J" opacity="1" fill="#ffffff" fill-opacity="1"></use><g><use xlink:href="#aj42d7S3J" opacity="1" fill-opacity="0" stroke="#000000" stroke-width="1" stroke-opacity="0"></use></g></g><g><use xlink:href="#hUtFidhlZ" opacity="1" fill="#ffffff" fill-opacity="1"></use><g><use xlink:href="#hUtFidhlZ" opacity="1" fill-opacity="0" stroke="#000000" stroke-width="1" stroke-opacity="0"></use></g></g><g><use xlink:href="#c2SIMJdRa" opacity="1" fill="#ffffff" fill-opacity="1"></use><g><use xlink:href="#c2SIMJdRa" opacity="1" fill-opacity="0" stroke="#000000" stroke-width="1" stroke-opacity="0"></use></g></g></g></g></svg>