<?xml version="1.0" encoding="UTF-8" standalone="no"?>
<!DOCTYPE svg PUBLIC "-//W3C//DTD SVG 1.1//EN" "http://www.w3.org/Graphics/SVG/1.1/DTD/svg11.dtd">
<svg version="1.1" xmlns="http://www.w3.org/2000/svg" xmlns:xlink="http://www.w3.org/1999/xlink" preserveAspectRatio="xMidYMid meet" viewBox="0 0 640 640" width="640" height="640"><defs><path d="M569.79 396.45C569.79 532.8 457.74 643.33 319.53 643.33C181.31 643.33 69.25 532.8 69.25 396.45C69.25 260.1 181.31 149.58 319.53 149.58C457.74 149.58 569.79 260.1 569.79 396.45" id="e17BWzxViV"></path><path d="M125.53 383.31C141.05 443.1 130.39 497.43 101.68 504.68C72.99 511.94 37.14 469.36 21.61 409.59C6.09 349.81 16.77 295.47 45.45 288.22C74.15 280.96 110 323.54 125.53 383.31" id="aiQ62mXQ"></path><path d="M514.48 383.32C498.94 443.1 509.62 497.43 538.31 504.69C567.01 511.94 602.86 469.36 618.38 409.59C633.91 349.81 623.24 295.48 594.55 288.22C565.85 280.97 530 323.55 514.48 383.32" id="aVSj2O8s4"></path><path d="M536.44 396.44C536.44 514.63 439.32 610.43 319.52 610.43C199.73 610.43 102.6 514.63 102.6 396.44C102.6 278.27 199.73 182.47 319.52 182.47C439.32 182.47 536.44 278.27 536.44 396.44" id="cUS3VePXk"></path><path d="M314.21 469.7C307.34 469.7 301.77 464.2 301.77 457.42C301.77 452.13 301.77 409.84 301.77 404.56C301.77 356.03 341.78 316.56 390.96 316.56C403 316.56 414.68 318.88 425.69 323.48C432.02 326.12 434.98 333.33 432.3 339.57C429.63 345.82 422.32 348.74 415.99 346.1C408.07 342.79 399.65 341.11 390.96 341.11C355.51 341.11 326.66 369.58 326.66 404.56C326.66 409.84 326.66 452.13 326.66 457.42C326.66 464.2 321.09 469.7 314.21 469.7" id="ef4to7YYQ"></path><path d="M314.21 555.16C283.62 555.16 255.51 539.98 239.02 514.54C235.32 508.83 237.01 501.24 242.8 497.58C248.59 493.93 256.29 495.59 259.99 501.31C271.89 519.65 292.16 530.61 314.21 530.61C336.27 530.61 356.53 519.65 368.43 501.31C372.13 495.59 379.83 493.92 385.62 497.58C391.41 501.24 393.11 508.83 389.4 514.54C372.91 539.98 344.8 555.16 314.21 555.16" id="a5bUYPmOal"></path><path d="M397.57 404.75C397.57 414.9 389.21 423.15 378.91 423.15C368.62 423.15 360.27 414.9 360.27 404.75C360.27 394.58 368.62 386.34 378.91 386.34C389.21 386.34 397.57 394.58 397.57 404.75" id="a3IlUiraz0"></path><path d="M268.15 403.74C268.15 413.89 259.81 422.13 249.5 422.13C239.21 422.13 230.86 413.89 230.86 403.74C230.86 393.57 239.21 385.33 249.5 385.33C259.81 385.33 268.15 393.57 268.15 403.74" id="he8GkjA0t"></path><path d="M350.02 182.47C307.05 182.47 283.18 182.47 278.41 182.47C278.41 182.47 290.97 181.09 290.97 176.26C290.97 172.26 307.9 -2.95 314.92 -2.95C321.96 -2.95 337.02 173.02 337.02 176.26C337.02 181.23 350.02 182.47 350.02 182.47" id="a7t05J8r7"></path></defs><g><g><g><use xlink:href="#e17BWzxViV" opacity="1" fill="#ffffff" fill-opacity="1"></use><g><use xlink:href="#e17BWzxViV" opacity="1" fill-opacity="0" stroke="#000000" stroke-width="1" stroke-opacity="0"></use></g></g><g><use xlink:href="#aiQ62mXQ" opacity="1" fill="#ffffff" fill-opacity="1"></use><g><use xlink:href="#aiQ62mXQ" opacity="1" fill-opacity="0" stroke="#000000" stroke-width="1" stroke-opacity="0"></use></g></g><g><use xlink:href="#aVSj2O8s4" opacity="1" fill="#ffffff" fill-opacity="1"></use><g><use xlink:href="#aVSj2O8s4" opacity="1" fill-opacity="0" stroke="#000000" stroke-width="1" stroke-opacity="0"></use></g></g><g><use xlink:href="#cUS3VePXk" opacity="1" fill="#263238" fill-opacity="1"></use><g><use xlink:href="#cUS3VePXk" opacity="1" fill-opacity="0" stroke="#000000" stroke-width="1" stroke-opacity="0"></use></g></g><g><use xlink:href="#ef4to7YYQ" opacity="1" fill="#ffffff" fill-opacity="1"></use><g><use xlink:href="#ef4to7YYQ" opacity="1" fill-opacity="0" stroke="#000000" stroke-width="1" stroke-opacity="0"></use></g></g><g><use xlink:href="#a5bUYPmOal" opacity="1" fill="#ffffff" fill-opacity="1"></use><g><use xlink:href="#a5bUYPmOal" opacity="1" fill-opacity="0" stroke="#000000" stroke-width="1" stroke-opacity="0"></use></g></g><g><use xlink:href="#a3IlUiraz0" opacity="1" fill="#ffffff" fill-opacity="1"></use><g><use xlink:href="#a3IlUiraz0" opacity="1" fill-opacity="0" stroke="#000000" stroke-width="1" stroke-opacity="0"></use></g></g><g><use xlink:href="#he8GkjA0t" opacity="1" fill="#ffffff" fill-opacity="1"></use><g><use xlink:href="#he8GkjA0t" opacity="1" fill-opacity="0" stroke="#000000" stroke-width="1" stroke-opacity="0"></use></g></g><g><use xlink:href="#a7t05J8r7" opacity="1" fill="#ffffff" fill-opacity="1"></use><g><use xlink:href="#a7t05J8r7" opacity="1" fill-opacity="0" stroke="#000000" stroke-width="1" stroke-opacity="0"></use></g></g></g></g></svg>