<?xml version="1.0" encoding="UTF-8" standalone="no"?>
<!DOCTYPE svg PUBLIC "-//W3C//DTD SVG 1.1//EN" "http://www.w3.org/Graphics/SVG/1.1/DTD/svg11.dtd">
<svg version="1.1" xmlns="http://www.w3.org/2000/svg" xmlns:xlink="http://www.w3.org/1999/xlink" preserveAspectRatio="xMidYMid meet" viewBox="0 0 640 640" width="640" height="640"><defs><path d="M115 432.99C115 547.32 201.99 640 309.28 640C416.58 640 503.57 547.32 503.57 432.99C503.57 318.66 416.58 225.99 309.28 225.99C201.99 225.99 115 318.66 115 432.99" id="c7rY2QDq"></path><path d="M460.63 421.98C448.58 472.1 456.86 517.66 479.14 523.75C501.42 529.83 529.24 494.13 541.3 444.01C553.35 393.88 545.06 348.33 522.79 342.24C500.52 336.16 472.68 371.86 460.63 421.98" id="c19x7yNMkd"></path><path d="M157.94 421.98C170 472.1 161.71 517.66 139.44 523.75C117.16 529.83 89.33 494.13 77.28 444.01C65.22 393.88 73.51 348.33 95.78 342.24C118.06 336.16 145.89 371.86 157.94 421.98" id="dgX82CBUR"></path><path d="M281.49 230.01C314.84 230.01 333.37 230.01 337.08 230.01C337.08 230.01 327.33 229.08 327.33 225.86C327.33 223.19 314.18 106.25 308.73 106.25C303.27 106.25 291.58 223.7 291.58 225.86C291.58 229.18 281.49 230.01 281.49 230.01" id="awkDHZJjd"></path><path d="M140.89 439.65C140.89 538.75 216.28 619.09 309.28 619.09C402.29 619.09 477.68 538.75 477.68 439.65C477.68 340.56 402.29 260.24 309.28 260.24C216.28 260.24 140.89 340.56 140.89 439.65" id="b12ySO5Hqs"></path><path d="M313.4 494.97C318.74 494.97 323.06 490.36 323.06 484.67C323.06 480.24 323.06 444.78 323.06 440.34C323.06 399.66 292 366.56 253.82 366.56C244.48 366.56 235.41 368.51 226.86 372.36C221.95 374.57 219.64 380.62 221.72 385.85C223.8 391.09 229.47 393.54 234.38 391.33C240.54 388.56 247.08 387.16 253.82 387.16C281.35 387.16 303.73 411.01 303.73 440.34C303.73 444.78 303.73 480.24 303.73 484.67C303.73 490.36 308.06 494.97 313.4 494.97" id="bkjX3kGoe"></path><path d="M248.7 439.66C248.7 448.17 255.18 455.08 263.17 455.08C271.17 455.08 277.65 448.17 277.65 439.66C277.65 431.13 271.17 424.24 263.17 424.24C255.18 424.24 248.7 431.13 248.7 439.66" id="dpvkmwLjJ"></path><path d="M349.16 439.66C349.16 448.17 355.64 455.08 363.63 455.08C371.63 455.08 378.11 448.17 378.11 439.66C378.11 431.13 371.63 424.24 363.63 424.24C355.64 424.24 349.16 431.13 349.16 439.66" id="b1I3DIL5VU"></path><path d="M344.74 563.22C355.84 563.22 367.46 558.27 378.97 542.84C382.29 538.39 381.6 531.92 377.42 528.38C373.24 524.84 367.17 525.58 363.84 530.03C350.74 547.59 340.89 544.09 321.62 535.13C302.81 526.4 277.06 514.43 248.68 543.7C244.84 547.65 244.74 554.17 248.46 558.25C252.16 562.35 258.28 562.45 262.12 558.49C281.2 538.82 295.63 545.51 313.89 554.01C323.24 558.35 333.74 563.22 344.74 563.22" id="aMzA81j"></path></defs><g><g><g><use xlink:href="#c7rY2QDq" opacity="1" fill="#ffffff" fill-opacity="1"></use><g><use xlink:href="#c7rY2QDq" opacity="1" fill-opacity="0" stroke="#000000" stroke-width="1" stroke-opacity="0"></use></g></g><g><use xlink:href="#c19x7yNMkd" opacity="1" fill="#ffffff" fill-opacity="1"></use><g><use xlink:href="#c19x7yNMkd" opacity="1" fill-opacity="0" stroke="#000000" stroke-width="1" stroke-opacity="0"></use></g></g><g><use xlink:href="#dgX82CBUR" opacity="1" fill="#ffffff" fill-opacity="1"></use><g><use xlink:href="#dgX82CBUR" opacity="1" fill-opacity="0" stroke="#000000" stroke-width="1" stroke-opacity="0"></use></g></g><g><use xlink:href="#awkDHZJjd" opacity="1" fill="#ffffff" fill-opacity="1"></use><g><use xlink:href="#awkDHZJjd" opacity="1" fill-opacity="0" stroke="#000000" stroke-width="1" stroke-opacity="0"></use></g></g><g><use xlink:href="#b12ySO5Hqs" opacity="1" fill="#263238" fill-opacity="1"></use><g><use xlink:href="#b12ySO5Hqs" opacity="1" fill-opacity="0" stroke="#000000" stroke-width="1" stroke-opacity="0"></use></g></g><g><use xlink:href="#bkjX3kGoe" opacity="1" fill="#ffffff" fill-opacity="1"></use><g><use xlink:href="#bkjX3kGoe" opacity="1" fill-opacity="0" stroke="#000000" stroke-width="1" stroke-opacity="0"></use></g></g><g><use xlink:href="#dpvkmwLjJ" opacity="1" fill="#ffffff" fill-opacity="1"></use><g><use xlink:href="#dpvkmwLjJ" opacity="1" fill-opacity="0" stroke="#000000" stroke-width="1" stroke-opacity="0"></use></g></g><g><use xlink:href="#b1I3DIL5VU" opacity="1" fill="#ffffff" fill-opacity="1"></use><g><use xlink:href="#b1I3DIL5VU" opacity="1" fill-opacity="0" stroke="#000000" stroke-width="1" stroke-opacity="0"></use></g></g><g><use xlink:href="#aMzA81j" opacity="1" fill="#ffffff" fill-opacity="1"></use><g><use xlink:href="#aMzA81j" opacity="1" fill-opacity="0" stroke="#000000" stroke-width="1" stroke-opacity="0"></use></g></g></g></g></svg>